<?xml version="1.0" encoding="UTF-8"?>
<!-- Generated by Pixelmator Pro 3.6.5 -->
<svg width="623" height="624" viewBox="0 0 623 624" xmlns="http://www.w3.org/2000/svg">
    <path id="Shape" fill="#ffffff" fill-rule="evenodd" stroke="#ffffff" stroke-width="4" d="M 373.151367 618.870239 C 368.393127 618.79895 361.305969 618.367737 357.4021 617.912109 C 353.498291 617.456421 346.298279 616.195068 341.4021 615.108948 C 336.50592 614.022888 327.567871 611.468262 321.539673 609.431946 C 315.511475 607.39563 305.611511 603.23291 299.539673 600.181519 C 293.467834 597.130005 285.349976 592.610107 281.5 590.137329 C 277.650024 587.664551 270.355408 582.323914 265.289734 578.269287 C 260.224121 574.214722 251.74353 566.307861 246.444031 560.698608 C 241.144531 555.089355 234.425171 547.125 231.512146 543 C 228.599121 538.875 224.004395 531.896606 221.301697 527.492432 C 218.598938 523.088196 214.698425 515.55188 212.633789 510.744995 C 210.569214 505.93811 207.80127 498.917542 206.482727 495.143738 C 205.164246 491.369934 203.172546 484.875458 202.056702 480.711609 C 200.940857 476.54776 199.121643 467.491669 198.013977 460.587006 C 196.072144 448.48291 196 443.50293 196 321.598328 C 196 252.059204 195.726868 194.451782 195.393005 193.581787 C 194.930603 192.376709 193.321594 192 188.636902 192 C 185.254883 192 176.640503 191.323547 169.493896 190.496826 C 162.347229 189.670044 151.774994 187.806091 146 186.354736 C 140.225006 184.90332 131.987762 182.431946 127.695038 180.862793 C 123.402313 179.29364 116.431244 176.411682 112.203796 174.458496 C 107.976349 172.50531 100.913574 168.820129 96.508759 166.269226 C 92.103943 163.718323 84.225006 158.454102 79 154.570923 C 73.774994 150.687744 65.948639 144.133179 61.608063 140.00531 C 57.267517 135.87738 51.381287 129.575012 48.527557 126 C 45.673828 122.424988 41.310547 116.799988 38.83136 113.5 C 36.352173 110.200012 31.796814 103 28.708313 97.5 C 25.619812 92 21.237732 83.032593 18.970367 77.57251 C 16.703003 72.112366 13.338837 62.138916 11.494446 55.409302 C 9.650085 48.679749 7.434296 38.090149 6.570526 31.877014 C 5.706726 25.663818 5 17.299744 5 13.290161 C 5 8.124817 5.364319 5.999939 6.25 5.999817 C 6.9375 5.999695 90.764679 5.73584 192.532593 5.413452 C 373.970886 4.838684 377.611267 4.864624 379.936523 6.747498 C 382.307861 8.667725 382.307861 8.667725 382.640076 302.583862 C 382.822815 464.237732 382.709167 601.5625 382.387512 607.75 C 381.802673 619 381.802673 619 373.151367 618.870239 Z M 596.5 190.517578 C 582.456726 190.778381 571.938293 190.455872 564.748413 189.544006 C 558.835022 188.794067 550.35553 187.442688 545.905151 186.540894 C 541.454712 185.63916 533.017944 183.340393 527.156738 181.432556 C 521.295532 179.524719 511.099976 175.303894 504.5 172.052856 C 497.900024 168.80188 488.989258 163.904724 484.698303 161.170349 C 480.407349 158.435974 472.199646 152.300659 466.458923 147.536316 C 460.718201 142.771912 452.785217 135.307373 448.830139 130.948425 C 444.875 126.589417 438.635071 118.841492 434.963623 113.730713 C 431.292114 108.619995 426.123047 100.627319 423.476807 95.969238 C 420.830566 91.311157 417.615723 84.912476 416.332703 81.75 C 415.049744 78.587524 412.887939 73.247742 411.528809 69.88385 C 410.169617 66.519958 408.165283 60.515259 407.074707 56.539978 C 405.98407 52.564758 404.382996 45.979492 403.516663 41.906128 C 402.650391 37.832764 401.475037 28.042175 400.904785 20.149292 C 400.334595 12.25647 400.056396 5.610291 400.286621 5.380066 C 400.516846 5.149841 444.759033 5.082642 498.6026 5.230713 C 596.5 5.5 596.5 5.5 600.79126 7.791382 C 603.151489 9.051636 606.930481 11.976624 609.189148 14.291382 C 611.447815 16.60614 614.349854 20.75 615.638123 23.5 C 617.980469 28.5 617.980469 28.5 617.990234 109.25 C 617.995605 153.662476 617.887512 190.028748 617.75 190.063843 C 617.612488 190.098938 608.049988 190.303101 596.5 190.517578 Z"/>
</svg>
